<?xml version="1.0" standalone="no"?>
<!DOCTYPE svg PUBLIC "-//W3C//DTD SVG 20010904//EN"
 "http://www.w3.org/TR/2001/REC-SVG-20010904/DTD/svg10.dtd">
<svg version="1.0" xmlns="http://www.w3.org/2000/svg"
 width="32.000000pt" height="32.000000pt" viewBox="0 0 32.000000 32.000000"
 preserveAspectRatio="xMidYMid meet">

<g transform="translate(0.000000,32.000000) scale(0.100000,-0.100000)"
fill="#000000" stroke="none">
<path d="M95 306 c-101 -44 -125 -178 -46 -257 65 -65 157 -65 222 0 124 124
-15 327 -176 257z m111 -36 c26 -10 26 -11 9 -30 -12 -14 -25 -17 -45 -13 -41
8 -85 -36 -77 -77 4 -20 1 -33 -13 -45 -19 -17 -20 -17 -31 11 -37 97 59 191
157 154z m-22 -86 c9 -8 16 -19 16 -24 0 -11 -29 -40 -40 -40 -11 0 -40 29
-40 40 0 5 7 16 16 24 8 9 19 16 24 16 5 0 16 -7 24 -16z m33 -107 c15 -15 15
-17 -11 -27 -34 -13 -58 -13 -92 0 -25 10 -26 12 -11 28 21 23 91 23 114 -1z"/>
</g>
</svg>
