<?xml version="1.0" standalone="no"?>
<!DOCTYPE svg PUBLIC "-//W3C//DTD SVG 20010904//EN"
 "http://www.w3.org/TR/2001/REC-SVG-20010904/DTD/svg10.dtd">
<svg version="1.0" xmlns="http://www.w3.org/2000/svg"
 width="28.000000pt" height="28.000000pt" viewBox="0 0 28.000000 28.000000"
 preserveAspectRatio="xMidYMid meet">

<g transform="translate(0.000000,28.000000) scale(0.100000,-0.100000)"
fill="#000000" stroke="none">
<path d="M12 268 c-17 -17 -17 -239 0 -256 17 -17 239 -17 256 0 17 17 17 239
0 256 -17 17 -239 17 -256 0z m128 -88 c0 -22 5 -40 10 -40 6 0 10 5 10 10 0
6 14 10 30 10 38 0 38 -12 -2 -61 -37 -46 -51 -49 -46 -11 3 24 0 27 -32 30
-63 5 -64 9 -25 57 21 25 41 45 46 45 5 0 9 -18 9 -40z"/>
</g>
</svg>
