<?xml version="1.0" standalone="no"?>
<!DOCTYPE svg PUBLIC "-//W3C//DTD SVG 20010904//EN"
 "http://www.w3.org/TR/2001/REC-SVG-20010904/DTD/svg10.dtd">
<svg version="1.0" xmlns="http://www.w3.org/2000/svg"
 width="160.000000pt" height="160.000000pt" viewBox="0 0 160.000000 160.000000"
 preserveAspectRatio="xMidYMid meet">

<g transform="translate(0.000000,160.000000) scale(0.100000,-0.100000)"
fill="#000000" stroke="none">
<path d="M847 1324 c-21 -14 -44 -23 -52 -21 -9 4 -11 -1 -8 -14 7 -26 11 -24
62 21 51 47 50 50 -2 14z"/>
<path d="M517 1235 c-10 -7 -17 -22 -15 -32 3 -14 7 -11 21 15 20 36 19 37 -6
17z"/>
<path d="M256 1214 c-11 -30 -6 -37 14 -19 11 10 20 22 20 27 0 15 -28 9 -34
-8z"/>
<path d="M1100 1140 c0 -5 4 -10 9 -10 6 0 13 5 16 10 3 6 -1 10 -9 10 -9 0
-16 -4 -16 -10z"/>
<path d="M151 1114 c0 -11 3 -14 6 -6 3 7 2 16 -1 19 -3 4 -6 -2 -5 -13z"/>
<path d="M47 953 c-32 -53 -48 -219 -24 -258 6 -12 21 -36 32 -55 33 -56 69
-88 116 -100 24 -7 51 -16 59 -21 8 -5 32 -17 52 -27 27 -12 41 -27 49 -50 14
-42 62 -98 103 -119 22 -12 54 -17 111 -16 67 1 83 -2 101 -18 24 -22 75 -39
119 -39 21 0 40 -11 65 -37 70 -72 217 -115 305 -88 28 8 64 23 81 34 40 24
123 134 131 172 4 24 10 29 34 29 43 0 97 54 136 137 40 85 68 224 43 208 -5
-3 -10 -19 -10 -35 0 -15 -7 -30 -15 -34 -20 -7 -55 31 -62 68 -6 28 -7 29
-15 7 -5 -15 -3 -32 8 -52 21 -41 10 -83 -28 -110 -30 -22 -31 -22 -42 -3 -19
33 -45 124 -40 138 4 10 0 13 -14 10 -24 -7 -82 57 -82 91 0 37 -17 30 -24 -9
-13 -67 -114 -102 -221 -76 l-53 13 -32 -37 c-26 -29 -39 -36 -69 -36 -20 0
-43 5 -51 10 -11 7 -22 2 -40 -15 -36 -34 -159 -55 -193 -32 -20 13 -25 13
-33 1 -5 -8 -28 -21 -51 -29 -37 -13 -47 -13 -87 2 -25 10 -46 24 -46 32 0 7
21 35 48 61 67 67 166 97 222 66 22 -12 27 -11 55 10 17 13 73 40 125 60 84
34 105 38 186 38 l90 1 16 38 c9 20 15 37 14 37 -1 0 -17 -11 -36 -25 -30 -22
-43 -25 -126 -25 -51 0 -96 4 -99 10 -9 15 -25 12 -19 -4 7 -19 -39 -53 -100
-72 -50 -16 -54 -16 -98 4 -44 19 -47 22 -58 79 -11 49 -14 54 -21 35 -5 -13
-4 -33 1 -48 28 -74 3 -96 -108 -98 -69 -1 -76 1 -94 26 -11 14 -27 50 -34 80
l-14 53 4 -60 c2 -33 7 -67 10 -75 4 -9 0 -24 -8 -35 -13 -18 -15 -18 -107 4
-52 13 -106 29 -121 37 -35 18 -56 85 -38 122 10 23 8 43 -3 25z m1245 -260
c9 -8 29 -33 44 -55 24 -34 28 -51 29 -104 0 -67 -4 -74 -29 -49 -8 8 -19 15
-26 15 -6 0 -16 11 -22 25 -13 28 -26 32 -34 10 -6 -15 -49 -20 -78 -9 -19 7
-22 84 -5 133 19 55 78 72 121 34z m-224 -41 c43 -19 64 -52 60 -94 -3 -32 -5
-33 -51 -36 -37 -2 -52 1 -61 13 -11 16 -16 16 -59 1 -57 -19 -71 -20 -113 -4
-29 10 -35 9 -64 -15 -34 -29 -50 -33 -66 -17 -8 8 -20 5 -42 -7 -27 -15 -35
-16 -67 -4 -23 8 -54 10 -85 6 -70 -10 -77 16 -13 49 22 11 58 16 114 16 77 0
84 2 130 35 47 34 49 34 101 23 l53 -11 37 37 c40 40 55 41 126 8z m51 -283
c18 -6 30 -16 28 -23 -3 -6 2 -19 11 -28 9 -11 11 -18 4 -18 -6 0 -19 -8 -29
-19 -10 -10 -41 -26 -69 -35 -42 -14 -56 -15 -78 -5 -26 12 -35 42 -16 54 6 3
10 15 10 25 0 10 9 22 20 25 11 3 20 13 20 21 0 17 53 19 99 3z"/>
<path d="M172 940 c-10 -17 -10 -20 3 -20 8 0 15 9 15 20 0 11 -1 20 -3 20 -1
0 -8 -9 -15 -20z"/>
<path d="M810 931 c0 -5 5 -13 10 -16 6 -3 10 -2 10 4 0 5 -4 13 -10 16 -5 3
-10 2 -10 -4z"/>
<path d="M1456 811 c-4 -6 -3 -18 2 -27 6 -11 11 -13 16 -5 4 6 3 18 -2 27 -6
11 -11 13 -16 5z"/>
</g>
</svg>
