<svg width="24" height="24" viewBox="0 0 24 24" fill="none" xmlns="http://www.w3.org/2000/svg">
<path d="M18.3436 10.5328C18.0019 10.8759 17.7403 11.2901 17.5773 11.7457C17.4144 12.2014 17.3541 12.6873 17.4007 13.1689L17.3844 13.1527C17.4324 13.7196 17.3558 14.29 17.1601 14.8244C16.9644 15.3586 16.6543 15.8438 16.2514 16.2461C15.8484 16.6483 15.3625 16.958 14.8273 17.1533C14.2922 17.3487 13.7207 17.4252 13.153 17.3773L13.1692 17.3935C12.4901 17.3305 11.8079 17.478 11.2158 17.8161C10.6237 18.1542 10.1504 18.6664 9.86063 19.2829C9.57081 19.8994 9.47841 20.5901 9.59614 21.261C9.71396 21.9317 10.0361 22.55 10.5186 23.0313C11.0011 23.5126 11.6206 23.8336 12.2926 23.9506C12.9646 24.0676 13.6563 23.9747 14.2735 23.6848C14.8907 23.3948 15.4033 22.9219 15.7414 22.3305C16.0796 21.739 16.2268 21.0578 16.163 20.3798L16.1801 20.396C16.1321 19.8291 16.2087 19.2586 16.4044 18.7243C16.6001 18.1901 16.9103 17.7049 17.3131 17.3026C17.7161 16.9003 18.2021 16.5906 18.7372 16.3953C19.2724 16.1999 19.8437 16.1234 20.4115 16.1713L20.3944 16.1551C20.9491 16.2049 21.5076 16.1141 22.0179 15.8911C22.5281 15.668 22.9738 15.32 23.3135 14.8793C23.6531 14.4385 23.876 13.9192 23.9611 13.3697C24.0463 12.8201 23.9911 12.2579 23.8007 11.7352C23.6103 11.2125 23.2909 10.7463 22.8719 10.3798C22.453 10.0132 21.9482 9.75813 21.4043 9.63825C20.8604 9.51837 20.2949 9.53745 19.7603 9.69378C19.2257 9.8502 18.7394 10.1387 18.3463 10.5328H18.3436Z" fill="white"/>
<path d="M11.6933 15.2716L11.6761 15.2554C12.1587 15.3039 12.646 15.2448 13.103 15.0822C13.5598 14.9197 13.9748 14.6579 14.3179 14.3156C14.6609 13.9733 14.9236 13.5591 15.0867 13.1031C15.2499 12.6471 15.3094 12.1606 15.2612 11.6788L15.2783 11.695C15.2304 11.128 15.307 10.5576 15.5026 10.0233C15.6983 9.48904 16.0085 9.00384 16.4114 8.60154C16.8143 8.19932 17.3003 7.88963 17.8354 7.69433C18.3706 7.4989 18.9419 7.42246 19.5098 7.47031L19.4926 7.45411C20.1719 7.51783 20.8542 7.37074 21.4466 7.033C22.0392 6.69526 22.5128 6.18327 22.8031 5.56688C23.0933 4.9505 23.1861 4.25972 23.0687 3.58875C22.9513 2.91779 22.6295 2.29932 22.1471 1.81769C21.6647 1.33607 21.0452 1.01473 20.3732 0.897527C19.7011 0.780319 19.0093 0.872939 18.3919 1.16276C17.7745 1.45257 17.2617 1.92548 16.9234 2.51698C16.5851 3.10846 16.4378 3.78974 16.5016 4.46788L16.4854 4.45078C16.5334 5.01769 16.457 5.58824 16.2614 6.12259C16.0658 6.65695 15.7556 7.14222 15.3527 7.54457C14.9498 7.94678 14.4637 8.25647 13.9285 8.45178C13.3932 8.64708 12.8218 8.7234 12.254 8.67543L12.2702 8.69253C11.7876 8.64402 11.3002 8.70315 10.8434 8.86569C10.3865 9.02814 9.97148 9.29004 9.62839 9.63232C9.2853 9.97459 9.0227 10.3888 8.85954 10.8448C8.69647 11.3008 8.63688 11.7873 8.68511 12.2692L8.66888 12.253C8.71666 12.8198 8.63995 13.3902 8.44424 13.9245C8.24844 14.4586 7.93834 14.9438 7.53548 15.346C7.13259 15.7482 6.64667 16.0578 6.1116 16.2533C5.57653 16.4487 5.0052 16.5253 4.43746 16.4776L4.45368 16.4938C3.77445 16.4301 3.09208 16.5772 2.49963 16.9149C1.9072 17.2527 1.43353 17.7646 1.14325 18.381C0.852966 18.9975 0.760188 19.6882 0.877585 20.3592C0.994981 21.0301 1.31684 21.6486 1.79923 22.1302C2.28164 22.6119 2.9011 22.9332 3.57314 23.0504C4.24518 23.1676 4.93708 23.0749 5.55446 22.7851C6.17183 22.4953 6.68464 22.0225 7.02292 21.431C7.36123 20.8394 7.50853 20.1582 7.44471 19.48L7.46183 19.4962C7.41388 18.9293 7.4905 18.3589 7.68621 17.8246C7.88182 17.2903 8.19201 16.8051 8.59487 16.4028C8.99782 16.0006 9.4838 15.6909 10.0189 15.4956C10.5541 15.3002 11.1254 15.2237 11.6933 15.2716Z" fill="white"/>
<path d="M5.65203 13.465C5.9937 13.1219 6.25528 12.7077 6.41812 12.2521C6.58096 11.7964 6.64103 11.3104 6.59405 10.8289L6.61117 10.8451C6.56321 10.2781 6.6398 9.70738 6.8356 9.17296C7.03141 8.63853 7.34171 8.15325 7.74484 7.75094C8.14797 7.34866 8.63413 7.03906 9.1695 6.84381C9.70488 6.64854 10.2765 6.57231 10.8444 6.62044L10.8273 6.60424C11.5063 6.66776 12.1884 6.52061 12.7805 6.18289C13.3727 5.84518 13.8461 5.33332 14.1362 4.71713C14.4263 4.10093 14.519 3.4104 14.4016 2.73968C14.2843 2.06897 13.9624 1.45073 13.4803 0.969284C12.9981 0.487833 12.3788 0.166601 11.707 0.049402C11.0352 -0.0678063 10.3436 0.0247327 9.72642 0.314374C9.1092 0.604015 8.59654 1.07667 8.25831 1.66789C7.92 2.25911 7.77261 2.94011 7.83625 3.61801L7.82003 3.60181C7.86798 4.16868 7.79136 4.73917 7.59565 5.27345C7.39995 5.80773 7.08987 6.29294 6.68695 6.69521C6.28405 7.09748 5.79805 7.4071 5.26292 7.60244C4.72778 7.79784 4.15638 7.87434 3.5886 7.82646L3.60482 7.84266C3.05004 7.79298 2.49167 7.88397 1.98147 8.10708C1.47126 8.33019 1.02572 8.67831 0.686132 9.11914C0.346545 9.55987 0.123904 10.0792 0.0388247 10.6287C-0.0462456 11.1784 0.00900454 11.7405 0.199455 12.2631C0.389905 12.7857 0.709408 13.2518 1.12834 13.6183C1.54727 13.9849 2.05209 14.2398 2.59601 14.3597C3.13992 14.4795 3.70534 14.4603 4.23987 14.304C4.7744 14.1476 5.26073 13.859 5.65382 13.465H5.65203Z" fill="white"/>
</svg>
